<?xml version="1.0" encoding="UTF-8"?>
<svg xmlns="http://www.w3.org/2000/svg" xmlns:xlink="http://www.w3.org/1999/xlink" width="512" height="512" viewBox="0 0 56 56" version="1.1"><!-- Generator: Sketch 51.3 (57544) - http://www.bohemiancoding.com/sketch --><title>041 - Sales radar</title><desc>Created with Sketch.</desc><defs/><g id="Page-1" stroke="none" stroke-width="1" fill="none" fill-rule="evenodd"><g id="041---Sales-radar" fill="#000000" fill-rule="nonzero"><circle id="Oval" cx="49" cy="8" r="3"/><path d="M29,31.858 C30.3993145,31.4921096 31.4921096,30.3993145 31.858,29 L29,29 L29,31.858 Z" id="Shape"/><path d="M29,24.142 L29,27 L31.858,27 C31.4921096,25.6006855 30.3993145,24.5078904 29,24.142 Z" id="Shape"/><path d="M33.91,27 L43.949,27 C43.4365061,18.9657425 37.0342575,12.5634939 29,12.051 L29,22.09 C31.5125124,22.5194053 33.4805947,24.4874876 33.91,27 Z" id="Shape"/><circle id="Oval" cx="40" cy="40" r="3"/><path d="M33.91,29 C33.4805947,31.5125124 31.5125124,33.4805947 29,33.91 L29,36 C29,36.5522847 28.5522847,37 28,37 C27.4477153,37 27,36.5522847 27,36 L27,33.91 C24.4874876,33.4805947 22.5194053,31.5125124 22.09,29 L20,29 C19.4477153,29 19,28.5522847 19,28 C19,27.4477153 19.4477153,27 20,27 L22.09,27 C22.5194053,24.4874876 24.4874876,22.5194053 27,22.09 L27,12.035 C24.7297775,12.1785989 22.5165636,12.8063183 20.509,13.876 C20.8285379,14.5386926 20.9962752,15.2643017 21,16 C20.9966939,18.7600532 18.7600532,20.9966939 16,21 C15.2643017,20.9962752 14.5386926,20.8285379 13.876,20.509 C12.8061742,22.5165056 12.1784458,24.7297513 12.035,27 L13,27 C13.5522847,27 14,27.4477153 14,28 C14,28.5522847 13.5522847,29 13,29 L12.051,29 C12.5634939,37.0342575 18.9657425,43.4365061 27,43.949 L27,43 C27,42.4477153 27.4477153,42 28,42 C28.5522847,42 29,42.4477153 29,43 L29,43.965 C31.2702225,43.8214011 33.4834364,43.1936817 35.491,42.124 C35.1714621,41.4613074 35.0037248,40.7356983 35,40 C35.0033061,37.2399468 37.2399468,35.0033061 40,35 C40.7356983,35.0037248 41.4613074,35.1714621 42.124,35.491 C43.1938258,33.4834944 43.8215542,31.2702487 43.965,29 L33.91,29 Z" id="Shape"/><path d="M27,24.142 C25.6006855,24.5078904 24.5078904,25.6006855 24.142,27 L27,27 L27,24.142 Z" id="Shape"/><circle id="Oval" cx="16" cy="16" r="3"/><path d="M27,31.858 L27,29 L24.142,29 C24.5078904,30.3993145 25.6006855,31.4921096 27,31.858 Z" id="Shape"/><path d="M43.732,36.707 C45.4936074,38.6746337 45.4107679,41.6758402 43.5433041,43.5433041 C41.6758402,45.4107679 38.6746337,45.4936074 36.707,43.732 C34.3396496,45.0489275 31.7046905,45.8123717 29,45.965 L29,47 C29,47.5522847 28.5522847,48 28,48 C27.4477153,48 27,47.5522847 27,47 L27,45.949 C17.8620021,45.4320725 10.5679275,38.1379979 10.051,29 L9,29 C8.44771525,29 8,28.5522847 8,28 C8,27.4477153 8.44771525,27 9,27 L10.035,27 C10.1876283,24.2953095 10.9510725,21.6603504 12.268,19.293 C10.5063926,17.3253663 10.5892321,14.3241598 12.4566959,12.4566959 C14.3241598,10.5892321 17.3253663,10.5063926 19.293,12.268 C21.6603504,10.9510725 24.2953095,10.1876283 27,10.035 L27,0.025 C12.3320366,0.565967461 0.565967461,12.3320366 0.025,27 L2,27 C2.55228475,27 3,27.4477153 3,28 C3,28.5522847 2.55228475,29 2,29 L0.025,29 C0.565967461,43.6679634 12.3320366,55.4340325 27,55.975 L27,54 C27,53.4477153 27.4477153,53 28,53 C28.5522847,53 29,53.4477153 29,54 L29,55.975 C43.6679634,55.4340325 55.4340325,43.6679634 55.975,29 L45.965,29 C45.8123717,31.7046905 45.0489275,34.3396496 43.732,36.707 Z" id="Shape"/><path d="M55.962,27 C55.7938541,21.7999075 54.1616364,16.752823 51.253,12.439 C50.5573302,12.8025888 49.7849378,12.9949156 49,13 C46.2399468,12.9966939 44.0033061,10.7600532 44,8 C44.0051207,7.13509218 44.2375574,6.28673265 44.674,5.54 C40.1402467,2.13670222 34.6662727,0.216236291 29,0.041 L29,10.051 C38.1379979,10.5679275 45.4320725,17.8620021 45.949,27 L55.962,27 Z" id="Shape"/></g></g></svg>
